<svg xmlns="http://www.w3.org/2000/svg" viewBox="0 0 1000 640" width="1000" height="640" fill="none"><circle cx="275" cy="452" r="56" fill="#3c3f49" stroke="#9aa0ab" stroke-width="3"/><line x1="319" y1="452" x2="331" y2="452" stroke="#54586180" stroke-width="4" stroke-linecap="round"/><line x1="315.6506994304966" y1="468.83807102406394" x2="326.7372538206321" y2="473.430272212445" stroke="#54586180" stroke-width="4" stroke-linecap="round"/><line x1="306.1126983722081" y1="483.1126983722081" x2="314.59797974644664" y2="491.59797974644664" stroke="#54586180" stroke-width="4" stroke-linecap="round"/><line x1="291.83807102406394" y1="492.6506994304966" x2="296.43027221244506" y2="503.7372538206321" stroke="#54586180" stroke-width="4" stroke-linecap="round"/><line x1="275" y1="496" x2="275" y2="508" stroke="#54586180" stroke-width="4" stroke-linecap="round"/><line x1="258.16192897593606" y1="492.6506994304966" x2="253.56972778755497" y2="503.7372538206321" stroke="#54586180" stroke-width="4" stroke-linecap="round"/><line x1="243.8873016277919" y1="483.1126983722081" x2="235.40202025355336" y2="491.59797974644664" stroke="#54586180" stroke-width="4" stroke-linecap="round"/><line x1="234.34930056950338" y1="468.83807102406394" x2="223.26274617936795" y2="473.43027221244506" stroke="#54586180" stroke-width="4" stroke-linecap="round"/><line x1="231" y1="452" x2="219" y2="452" stroke="#54586180" stroke-width="4" stroke-linecap="round"/><line x1="234.34930056950338" y1="435.16192897593606" x2="223.26274617936792" y2="430.569727787555" stroke="#54586180" stroke-width="4" stroke-linecap="round"/><line x1="243.8873016277919" y1="420.8873016277919" x2="235.40202025355333" y2="412.40202025355336" stroke="#54586180" stroke-width="4" stroke-linecap="round"/><line x1="258.161928975936" y1="411.3493005695034" x2="253.56972778755494" y2="400.2627461793679" stroke="#54586180" stroke-width="4" stroke-linecap="round"/><line x1="275" y1="408" x2="275" y2="396" stroke="#54586180" stroke-width="4" stroke-linecap="round"/><line x1="291.83807102406394" y1="411.3493005695034" x2="296.43027221244506" y2="400.2627461793679" stroke="#54586180" stroke-width="4" stroke-linecap="round"/><line x1="306.11269837220806" y1="420.8873016277919" x2="314.59797974644664" y2="412.40202025355336" stroke="#54586180" stroke-width="4" stroke-linecap="round"/><line x1="315.6506994304966" y1="435.161928975936" x2="326.7372538206321" y2="430.56972778755494" stroke="#54586180" stroke-width="4" stroke-linecap="round"/><circle cx="275" cy="452" r="38" fill="none" stroke="#d6f24e" stroke-width="3" opacity="0.8"/><circle cx="275" cy="452" r="10" fill="#9aa0ab"/></svg>