<svg xmlns="http://www.w3.org/2000/svg" viewBox="0 0 1000 640" width="1000" height="640" fill="none"><circle cx="275" cy="452" r="138" fill="none" stroke="#141519" stroke-width="30"/><circle cx="275" cy="452" r="138" fill="none" stroke="#0c0d10" stroke-width="30" stroke-dasharray="18 12"/><circle cx="275" cy="452" r="105" fill="none" stroke="#cbd0d8" stroke-width="5"/><line x1="275" y1="452" x2="377" y2="452" stroke="#7d828d" stroke-width="2" stroke-linecap="round"/><line x1="275" y1="452" x2="363.33459118601274" y2="503" stroke="#7d828d" stroke-width="2" stroke-linecap="round"/><line x1="275" y1="452" x2="326" y2="540.3345911860127" stroke="#7d828d" stroke-width="2" stroke-linecap="round"/><line x1="275" y1="452" x2="275" y2="554" stroke="#7d828d" stroke-width="2" stroke-linecap="round"/><line x1="275" y1="452" x2="224.00000000000003" y2="540.3345911860127" stroke="#7d828d" stroke-width="2" stroke-linecap="round"/><line x1="275" y1="452" x2="186.66540881398726" y2="503" stroke="#7d828d" stroke-width="2" stroke-linecap="round"/><line x1="275" y1="452" x2="173" y2="452" stroke="#7d828d" stroke-width="2" stroke-linecap="round"/><line x1="275" y1="452" x2="186.66540881398726" y2="401" stroke="#7d828d" stroke-width="2" stroke-linecap="round"/><line x1="275" y1="452" x2="223.99999999999994" y2="363.66540881398726" stroke="#7d828d" stroke-width="2" stroke-linecap="round"/><line x1="275" y1="452" x2="275" y2="350" stroke="#7d828d" stroke-width="2" stroke-linecap="round"/><line x1="275" y1="452" x2="326" y2="363.66540881398726" stroke="#7d828d" stroke-width="2" stroke-linecap="round"/><line x1="275" y1="452" x2="363.33459118601274" y2="400.99999999999994" stroke="#7d828d" stroke-width="2" stroke-linecap="round"/><circle cx="275" cy="452" r="12" fill="#3c3f49"/><circle cx="735" cy="452" r="156" fill="none" stroke="#141519" stroke-width="30"/><circle cx="735" cy="452" r="156" fill="none" stroke="#0c0d10" stroke-width="30" stroke-dasharray="18 12"/><circle cx="735" cy="452" r="123" fill="none" stroke="#cbd0d8" stroke-width="5"/><line x1="735" y1="452" x2="855" y2="452" stroke="#7d828d" stroke-width="2" stroke-linecap="round"/><line x1="735" y1="452" x2="838.9230484541326" y2="512" stroke="#7d828d" stroke-width="2" stroke-linecap="round"/><line x1="735" y1="452" x2="795" y2="555.9230484541326" stroke="#7d828d" stroke-width="2" stroke-linecap="round"/><line x1="735" y1="452" x2="735" y2="572" stroke="#7d828d" stroke-width="2" stroke-linecap="round"/><line x1="735" y1="452" x2="675" y2="555.9230484541326" stroke="#7d828d" stroke-width="2" stroke-linecap="round"/><line x1="735" y1="452" x2="631.0769515458674" y2="512" stroke="#7d828d" stroke-width="2" stroke-linecap="round"/><line x1="735" y1="452" x2="615" y2="452" stroke="#7d828d" stroke-width="2" stroke-linecap="round"/><line x1="735" y1="452" x2="631.0769515458674" y2="392" stroke="#7d828d" stroke-width="2" stroke-linecap="round"/><line x1="735" y1="452" x2="675" y2="348.07695154586736" stroke="#7d828d" stroke-width="2" stroke-linecap="round"/><line x1="735" y1="452" x2="735" y2="332" stroke="#7d828d" stroke-width="2" stroke-linecap="round"/><line x1="735" y1="452" x2="795" y2="348.07695154586736" stroke="#7d828d" stroke-width="2" stroke-linecap="round"/><line x1="735" y1="452" x2="838.9230484541326" y2="391.99999999999994" stroke="#7d828d" stroke-width="2" stroke-linecap="round"/><circle cx="735" cy="452" r="12" fill="#3c3f49"/></svg>