<svg xmlns="http://www.w3.org/2000/svg" viewBox="0 0 1000 640" width="1000" height="640" fill="none"><circle cx="735" cy="452" r="58" fill="none" stroke="#9aa0ab" stroke-width="4"/><circle cx="735" cy="452" r="52" fill="none" stroke="#6b6f79" stroke-width="1.5"/><circle cx="781" cy="452" r="3" fill="#0b0c0f"/><circle cx="772.2147817412476" cy="479.03812160545374" r="3" fill="#0b0c0f"/><circle cx="749.2147817412476" cy="495.74859974957707" r="3" fill="#0b0c0f"/><circle cx="720.7852182587524" cy="495.74859974957707" r="3" fill="#0b0c0f"/><circle cx="697.7852182587524" cy="479.0381216054538" r="3" fill="#0b0c0f"/><circle cx="689" cy="452" r="3" fill="#0b0c0f"/><circle cx="697.7852182587524" cy="424.96187839454626" r="3" fill="#0b0c0f"/><circle cx="720.7852182587524" cy="408.25140025042293" r="3" fill="#0b0c0f"/><circle cx="749.2147817412475" cy="408.25140025042293" r="3" fill="#0b0c0f"/><circle cx="772.2147817412476" cy="424.9618783945462" r="3" fill="#0b0c0f"/><rect x="723" y="382" width="24" height="30" rx="5" fill="#3c3f49" stroke="#e23a34" stroke-width="2"/><circle cx="275" cy="452" r="58" fill="none" stroke="#9aa0ab" stroke-width="4"/><circle cx="275" cy="452" r="52" fill="none" stroke="#6b6f79" stroke-width="1.5"/><circle cx="321" cy="452" r="3" fill="#0b0c0f"/><circle cx="312.2147817412476" cy="479.03812160545374" r="3" fill="#0b0c0f"/><circle cx="289.2147817412476" cy="495.74859974957707" r="3" fill="#0b0c0f"/><circle cx="260.7852182587524" cy="495.74859974957707" r="3" fill="#0b0c0f"/><circle cx="237.78521825875242" cy="479.0381216054538" r="3" fill="#0b0c0f"/><circle cx="229" cy="452" r="3" fill="#0b0c0f"/><circle cx="237.78521825875242" cy="424.96187839454626" r="3" fill="#0b0c0f"/><circle cx="260.7852182587524" cy="408.25140025042293" r="3" fill="#0b0c0f"/><circle cx="289.2147817412476" cy="408.25140025042293" r="3" fill="#0b0c0f"/><circle cx="312.2147817412476" cy="424.9618783945462" r="3" fill="#0b0c0f"/><rect x="263" y="382" width="24" height="30" rx="5" fill="#3c3f49" stroke="#e23a34" stroke-width="2"/></svg>