<svg xmlns="http://www.w3.org/2000/svg" viewBox="0 0 1000 640" width="1000" height="640" fill="none"><circle cx="735" cy="452" r="70" fill="none" stroke="#9aa0ab" stroke-width="4"/><circle cx="735" cy="452" r="64" fill="none" stroke="#6b6f79" stroke-width="1.5"/><circle cx="793" cy="452" r="3" fill="#0b0c0f"/><circle cx="781.922985673747" cy="486.09154463296346" r="3" fill="#0b0c0f"/><circle cx="752.922985673747" cy="507.1612779451189" r="3" fill="#0b0c0f"/><circle cx="717.0770143262531" cy="507.1612779451189" r="3" fill="#0b0c0f"/><circle cx="688.0770143262531" cy="486.09154463296346" r="3" fill="#0b0c0f"/><circle cx="677" cy="452" r="3" fill="#0b0c0f"/><circle cx="688.077014326253" cy="417.9084553670366" r="3" fill="#0b0c0f"/><circle cx="717.077014326253" cy="396.8387220548811" r="3" fill="#0b0c0f"/><circle cx="752.9229856737469" cy="396.8387220548811" r="3" fill="#0b0c0f"/><circle cx="781.9229856737469" cy="417.90845536703654" r="3" fill="#0b0c0f"/><rect x="723" y="370" width="24" height="30" rx="5" fill="#3c3f49" stroke="#d6f24e" stroke-width="2"/><circle cx="275" cy="452" r="70" fill="none" stroke="#9aa0ab" stroke-width="4"/><circle cx="275" cy="452" r="64" fill="none" stroke="#6b6f79" stroke-width="1.5"/><circle cx="333" cy="452" r="3" fill="#0b0c0f"/><circle cx="321.92298567374695" cy="486.09154463296346" r="3" fill="#0b0c0f"/><circle cx="292.92298567374695" cy="507.1612779451189" r="3" fill="#0b0c0f"/><circle cx="257.07701432625305" cy="507.1612779451189" r="3" fill="#0b0c0f"/><circle cx="228.07701432625305" cy="486.09154463296346" r="3" fill="#0b0c0f"/><circle cx="217" cy="452" r="3" fill="#0b0c0f"/><circle cx="228.07701432625305" cy="417.9084553670366" r="3" fill="#0b0c0f"/><circle cx="257.07701432625305" cy="396.8387220548811" r="3" fill="#0b0c0f"/><circle cx="292.92298567374695" cy="396.8387220548811" r="3" fill="#0b0c0f"/><circle cx="321.92298567374695" cy="417.90845536703654" r="3" fill="#0b0c0f"/><rect x="263" y="370" width="24" height="30" rx="5" fill="#3c3f49" stroke="#d6f24e" stroke-width="2"/></svg>